<?xml version="1.0" encoding="UTF-8" standalone="no"?>
<svg
   xmlns:dc="http://purl.org/dc/elements/1.1/"
   xmlns:cc="http://creativecommons.org/ns#"
   xmlns:rdf="http://www.w3.org/1999/02/22-rdf-syntax-ns#"
   xmlns:svg="http://www.w3.org/2000/svg"
   xmlns="http://www.w3.org/2000/svg"
   xmlns:sodipodi="http://sodipodi.sourceforge.net/DTD/sodipodi-0.dtd"
   xmlns:inkscape="http://www.inkscape.org/namespaces/inkscape"
   id="svg8"
   version="1.1"
   viewBox="0 0 218.33549 204.10744"
   height="204.10744mm"
   width="218.33549mm"
   sodipodi:docname="drawing.svg"
   inkscape:version="0.92.4 5da689c313, 2019-01-14">
  <sodipodi:namedview
     pagecolor="#ffffff"
     bordercolor="#666666"
     borderopacity="1"
     objecttolerance="10"
     gridtolerance="10"
     guidetolerance="10"
     inkscape:pageopacity="0"
     inkscape:pageshadow="2"
     inkscape:window-width="1920"
     inkscape:window-height="959"
     id="namedview865"
     showgrid="false"
     fit-margin-top="0"
     fit-margin-left="0"
     fit-margin-right="0"
     fit-margin-bottom="0"
     inkscape:zoom="0.21827011"
     inkscape:cx="1972.2638"
     inkscape:cy="-303.87054"
     inkscape:window-x="0"
     inkscape:window-y="25"
     inkscape:window-maximized="1"
     inkscape:current-layer="svg8" />
  <defs
     id="defs2" />
  <metadata
     id="metadata5">
    <rdf:RDF>
      <cc:Work
         rdf:about="">
        <dc:format>image/svg+xml</dc:format>
        <dc:type
           rdf:resource="http://purl.org/dc/dcmitype/StillImage" />
        <dc:title></dc:title>
      </cc:Work>
    </rdf:RDF>
  </metadata>
  <g
     id="layer1"
     transform="translate(266.02796,15.208522)">
    <path
       id="path815"
       d="m -198.29236,-15.208522 c -0.28978,0 -0.52296,0.233704 -0.52296,0.523482 v 26.370483 a 86.178571,86.178571 0 0 0 -2.16421,1.241785 L -223.8107,-0.25439619 c -0.25095,-0.144888 -0.56928,-0.05975 -0.71416,0.191204 L -265.95748,71.699866 c -0.14489,0.250958 -0.0592,0.569797 0.19172,0.714688 l 22.79086,13.158369 a 86.178571,86.178571 0 0 0 -0.0636,1.272273 86.178571,86.178571 0 0 0 0.0455,1.283126 l -22.77277,13.147518 c -0.25095,0.14489 -0.33661,0.46373 -0.19172,0.71468 l 41.43262,71.76306 c 0.14488,0.25096 0.46321,0.33609 0.71416,0.1912 l 22.83737,-13.18524 a 86.178571,86.178571 0 0 0 2.15801,1.32292 v 26.29348 c 0,0.28978 0.23318,0.52297 0.52296,0.52297 h 82.86471 c 0.28978,0 0.52297,-0.23319 0.52297,-0.52297 v -26.371 a 86.178571,86.178571 0 0 0 2.16421,-1.24126 l 22.830636,13.1811 c 0.25096,0.14489 0.5698,0.0598 0.71469,-0.1912 l 41.432094,-71.76306 c 0.144889,-0.25095 0.05975,-0.56979 -0.191203,-0.71468 L -70.745109,88.117468 a 86.178571,86.178571 0 0 0 0.06356,-1.272272 86.178571,86.178571 0 0 0 -0.04548,-1.283126 l 22.77277,-13.147516 c 0.250955,-0.144891 0.336092,-0.46373 0.191203,-0.714688 L -89.195154,-0.06319219 c -0.14489,-0.250957 -0.46373,-0.336092 -0.71469,-0.191204 L -112.74772,12.930845 a 86.178571,86.178571 0 0 0 -2.15697,-1.322917 V -14.68504 c 0,-0.289778 -0.23319,-0.523482 -0.52297,-0.523482 z m 41.4321,58.208334 a 43.845236,43.845236 0 0 1 43.84538,43.845384 43.845236,43.845236 0 0 1 -43.84538,43.845384 43.845236,43.845236 0 0 1 -43.84539,-43.845384 43.845236,43.845236 0 0 1 43.84539,-43.845384 z"
       style="fill:#000000;fill-opacity:1;stroke:none;stroke-width:3.83143115;stroke-miterlimit:4;stroke-dasharray:none;stroke-opacity:1"
       inkscape:connector-curvature="0" />
  </g>
</svg>
