<?xml version="1.0" encoding="UTF-8" standalone="no"?>
<svg
   xmlns:dc="http://purl.org/dc/elements/1.1/"
   xmlns:cc="http://creativecommons.org/ns#"
   xmlns:rdf="http://www.w3.org/1999/02/22-rdf-syntax-ns#"
   xmlns:svg="http://www.w3.org/2000/svg"
   xmlns="http://www.w3.org/2000/svg"
   id="svg877"
   version="1.1"
   viewBox="0 0 153.20471 318.63379"
   height="318.63379mm"
   width="153.20471mm">
  <defs
     id="defs871" />
  <metadata
     id="metadata874">
    <rdf:RDF>
      <cc:Work
         rdf:about="">
        <dc:format>image/svg+xml</dc:format>
        <dc:type
           rdf:resource="http://purl.org/dc/dcmitype/StillImage" />
        <dc:title></dc:title>
      </cc:Work>
    </rdf:RDF>
  </metadata>
  <g
     transform="translate(157.99397,30.327348)"
     style="opacity:1"
     id="layer3">
    <path
       id="rect891"
       transform="scale(0.26458333)"
       d="m -502.85742,-114.62305 c -52.23428,0 -94.28516,42.050883 -94.28516,94.285159 V 995.37695 c 0,52.23425 42.05088,94.28515 94.28516,94.28515 h 384.28515 c 52.234286,0 94.287114,-42.0509 94.287114,-94.28515 V -20.337891 c 0,-52.234276 -42.052828,-94.285159 -94.287114,-94.285159 z m 74.28515,85.714847 h 234.28711 c 9.50584,0 18.78031,0.646001 27.73828,1.875 H -53.537109 V 996.25 H -565.68555 v -81.41992 c -0.95408,-4.48343 -1.45703,-9.06938 -1.45703,-13.73828 V 65.376953 c 0,-4.668901 0.50295,-9.254857 1.45703,-13.738281 v -78.671875 h 109.375 c 8.95797,-1.228999 18.23245,-1.875 27.73828,-1.875 z"
       style="fill:#1a1a1a;fill-opacity:1;stroke:none;stroke-width:14.44502163;stroke-miterlimit:4;stroke-dasharray:none;stroke-opacity:1" />
    <circle
       r="3.0238097"
       cy="-17.854176"
       cx="-50.837799"
       id="path900"
       style="fill:#4d4d4d;fill-opacity:1;stroke:none;stroke-width:3.83143115;stroke-miterlimit:4;stroke-dasharray:none;stroke-opacity:1" />
    <circle
       r="1.3229166"
       cy="-17.854176"
       cx="-50.837799"
       id="path902"
       style="fill:#333333;fill-opacity:1;stroke:none;stroke-width:3.83143115;stroke-miterlimit:4;stroke-dasharray:none;stroke-opacity:1" />
    <rect
       ry="2.1008227"
       y="-19.843296"
       x="-95.183189"
       height="4.2016454"
       width="25.580214"
       id="rect906"
       style="fill:#4d4d4d;fill-opacity:1;stroke:none;stroke-width:3.92473078;stroke-miterlimit:4;stroke-dasharray:none;stroke-opacity:1" />
    <rect
       ry="1.0022607"
       y="24.785976"
       x="-6.793788"
       height="39.689526"
       width="2.0045214"
       id="rect911"
       style="fill:#1a1a1a;fill-opacity:1;stroke:none;stroke-width:3.83143115;stroke-miterlimit:4;stroke-dasharray:none;stroke-opacity:1" />
    <rect
       style="fill:#1a1a1a;fill-opacity:1;stroke:none;stroke-width:2.76788878;stroke-miterlimit:4;stroke-dasharray:none;stroke-opacity:1"
       id="rect913"
       width="2.0045214"
       height="20.713388"
       x="-6.793788"
       y="76.502625"
       ry="0.52306533" />
  </g>
</svg>
