<?xml version="1.0" encoding="UTF-8" standalone="no"?>
<svg
   xmlns:dc="http://purl.org/dc/elements/1.1/"
   xmlns:cc="http://creativecommons.org/ns#"
   xmlns:rdf="http://www.w3.org/1999/02/22-rdf-syntax-ns#"
   xmlns:svg="http://www.w3.org/2000/svg"
   xmlns="http://www.w3.org/2000/svg"
   xmlns:sodipodi="http://sodipodi.sourceforge.net/DTD/sodipodi-0.dtd"
   xmlns:inkscape="http://www.inkscape.org/namespaces/inkscape"
   id="svg8"
   version="1.1"
   viewBox="0 0 205.31667 205.31666"
   height="205.31667mm"
   width="205.31667mm"
   sodipodi:docname="color_selector.svg"
   inkscape:version="0.92.2 2405546, 2018-03-11">
  <sodipodi:namedview
     pagecolor="#ffffff"
     bordercolor="#666666"
     borderopacity="1"
     objecttolerance="10"
     gridtolerance="10"
     guidetolerance="10"
     inkscape:pageopacity="0"
     inkscape:pageshadow="2"
     inkscape:window-width="1920"
     inkscape:window-height="1003"
     id="namedview3736"
     showgrid="false"
     inkscape:zoom="0.026880993"
     inkscape:cx="-1202.4233"
     inkscape:cy="-676.88522"
     inkscape:window-x="0"
     inkscape:window-y="0"
     inkscape:window-maximized="1"
     inkscape:current-layer="layer1" />
  <defs
     id="defs2" />
  <metadata
     id="metadata5">
    <rdf:RDF>
      <cc:Work
         rdf:about="">
        <dc:format>image/svg+xml</dc:format>
        <dc:type
           rdf:resource="http://purl.org/dc/dcmitype/StillImage" />
        <dc:title />
      </cc:Work>
    </rdf:RDF>
  </metadata>
  <g
     transform="translate(1189.0108,-705.10459)"
     id="layer1">
    <text
       id="text1454"
       y="-254.83687"
       x="-917.5553"
       style="font-style:normal;font-weight:normal;font-size:10.58333302px;line-height:1.25;font-family:sans-serif;letter-spacing:0px;word-spacing:0px;fill:#000000;fill-opacity:1;stroke:none;stroke-width:0.26458332"
       xml:space="preserve"><tspan
         style="stroke-width:0.26458332"
         y="-245.20735"
         x="-917.5553"
         id="tspan1452" /></text>
    <path
       id="outer_color"
       transform="matrix(0.26458333,0,0,0.26458333,-357.16085,-57.667457)"
       d="m -3032,2882.918 c -62.048,0 -112,49.952 -112,112 v 552 c 0,62.048 49.952,112 112,112 h 552 c 62.048,0 112,-49.952 112,-112 v -552 c 0,-62.048 -49.952,-112 -112,-112 z m 42.6816,60 h 466.6387 c 52.453,0 94.6797,42.2267 94.6797,94.6797 v 466.6406 c 0,52.4529 -42.2267,94.6797 -94.6797,94.6797 h -466.6387 c -52.4529,0 -94.6816,-42.2268 -94.6816,-94.6797 v -466.6406 c 0,-52.453 42.2287,-94.6797 94.6816,-94.6797 z"
       style="opacity:1;fill:#008000;fill-opacity:1;stroke:none;stroke-width:10.28409386;stroke-miterlimit:4;stroke-dasharray:none;stroke-opacity:1" />
    <rect
       style="opacity:1;fill:#008000;fill-opacity:1;stroke:none;stroke-width:1.96360815;stroke-miterlimit:4;stroke-dasharray:none;stroke-opacity:1"
       id="inner_color"
       width="148.16666"
       height="148.16666"
       x="-1160.4358"
       y="733.67957"
       ry="21.384876" />
  </g>
</svg>
