<?xml version="1.0" encoding="UTF-8" standalone="no"?>
<svg
   xmlns:dc="http://purl.org/dc/elements/1.1/"
   xmlns:cc="http://creativecommons.org/ns#"
   xmlns:rdf="http://www.w3.org/1999/02/22-rdf-syntax-ns#"
   xmlns:svg="http://www.w3.org/2000/svg"
   xmlns="http://www.w3.org/2000/svg"
   xmlns:sodipodi="http://sodipodi.sourceforge.net/DTD/sodipodi-0.dtd"
   xmlns:inkscape="http://www.inkscape.org/namespaces/inkscape"
   id="svg8"
   version="1.1"
   viewBox="0 0 134.22837 134.22839"
   height="134.22839mm"
   width="134.22836mm"
   sodipodi:docname="image.svg"
   inkscape:version="0.92.2 2405546, 2018-03-11">
  <sodipodi:namedview
     pagecolor="#ffffff"
     bordercolor="#666666"
     borderopacity="1"
     objecttolerance="10"
     gridtolerance="10"
     guidetolerance="10"
     inkscape:pageopacity="0"
     inkscape:pageshadow="2"
     inkscape:window-width="1920"
     inkscape:window-height="1003"
     id="namedview3067"
     showgrid="false"
     inkscape:zoom="0.082234699"
     inkscape:cx="5.8574203"
     inkscape:cy="-541.81188"
     inkscape:window-x="0"
     inkscape:window-y="0"
     inkscape:window-maximized="1"
     inkscape:current-layer="layer1" />
  <defs
     id="defs2" />
  <metadata
     id="metadata5">
    <rdf:RDF>
      <cc:Work
         rdf:about="">
        <dc:format>image/svg+xml</dc:format>
        <dc:type
           rdf:resource="http://purl.org/dc/dcmitype/StillImage" />
        <dc:title />
      </cc:Work>
    </rdf:RDF>
  </metadata>
  <g
     transform="translate(727.47323,505.8086)"
     id="layer1">
    <g
       transform="translate(-345.73986,71.842049)"
       id="g974" />
    <path
       transform="matrix(0.26458333,0,0,0.26458333,-999.36368,5.0624819)"
       id="path1422"
       d="m 1445.7715,-1425.4609 a 223.68083,212.36714 0 0 0 -0.6367,-4.9844 223.68083,212.36714 0 0 0 -4.8965,-20.7109 223.68083,212.36714 0 0 0 -7.0508,-20.1465 223.68083,212.36714 0 0 0 -9.1328,-19.375 223.68083,212.36714 0 0 0 -11.125,-18.4141 223.68083,212.36714 0 0 0 -13.0059,-17.2676 223.68083,212.36714 0 0 0 -14.7558,-15.9472 223.68083,212.36714 0 0 0 -16.3594,-14.4688 223.68083,212.36714 0 0 0 -17.8008,-12.8476 223.68083,212.36714 0 0 0 -19.0605,-11.0958 223.68083,212.36714 0 0 0 -20.1328,-9.2324 223.68083,212.36714 0 0 0 -21.004,-7.2793 223.68083,212.36714 0 0 0 -21.664,-5.2519 223.68083,212.36714 0 0 0 -22.1074,-3.1719 223.68083,212.36714 0 0 0 -22.3301,-1.0625 223.68083,212.36714 0 0 0 -15.8223,0.5332 223.68083,212.36714 0 0 0 -22.1953,2.5566 223.68083,212.36714 0 0 0 -21.8164,4.6504 223.68083,212.36714 0 0 0 -21.2188,6.6934 223.68083,212.36714 0 0 0 -20.4082,8.6719 223.68083,212.36714 0 0 0 -19.3945,10.5625 223.68083,212.36714 0 0 0 -18.1875,12.3476 223.68083,212.36714 0 0 0 -16.7969,14.0098 223.68083,212.36714 0 0 0 -15.2402,15.5312 223.68083,212.36714 0 0 0 -13.5312,16.9004 223.68083,212.36714 0 0 0 -10.5508,16.336 v 72.4629 z"
       style="opacity:1;fill:none;fill-opacity:1;stroke:#000000;stroke-width:3.85889769;stroke-miterlimit:4;stroke-dasharray:none;stroke-opacity:1" />
    <path
       transform="matrix(0.26458333,0,0,0.26458333,-999.36368,5.0624819)"
       id="path1429"
       d="m 1533.0078,-1561.0859 a 186.67617,130.10765 0 0 0 -7.5488,0.1855 186.67617,130.10765 0 0 0 -18.5235,1.5664 186.67617,130.10765 0 0 0 -18.207,2.8496 186.67617,130.10765 0 0 0 -17.707,4.0996 186.67617,130.10765 0 0 0 -17.0332,5.3125 186.67617,130.10765 0 0 0 -16.1856,6.4727 186.67617,130.10765 0 0 0 -15.1777,7.5644 186.67617,130.10765 0 0 0 -14.0195,8.584 186.67617,130.10765 0 0 0 -4.6328,3.4668 223.68083,212.36714 0 0 1 8.957,11.8926 223.68083,212.36714 0 0 1 11.125,18.4141 223.68083,212.36714 0 0 1 9.1328,19.375 223.68083,212.36714 0 0 1 7.0508,20.1465 223.68083,212.36714 0 0 1 4.8965,20.7109 223.68083,212.36714 0 0 1 0.6367,4.9844 h 87.2363 z"
       style="opacity:1;fill:none;fill-opacity:1;stroke:#000000;stroke-width:3.85889769;stroke-miterlimit:4;stroke-dasharray:none;stroke-opacity:1" />
    <path
       transform="matrix(0.26458333,0,0,0.26458333,-999.36368,5.0624819)"
       id="rect1417"
       d="m 1029.5469,-1928.9219 v 430.9981 a 223.68083,212.36714 0 0 1 10.5508,-16.336 223.68083,212.36714 0 0 1 13.5312,-16.9004 223.68083,212.36714 0 0 1 15.2402,-15.5312 223.68083,212.36714 0 0 1 16.7969,-14.0098 223.68083,212.36714 0 0 1 18.1875,-12.3476 223.68083,212.36714 0 0 1 19.3945,-10.5625 223.68083,212.36714 0 0 1 20.4082,-8.6719 223.68083,212.36714 0 0 1 21.2188,-6.6934 223.68083,212.36714 0 0 1 21.8164,-4.6504 223.68083,212.36714 0 0 1 22.1953,-2.5566 223.68083,212.36714 0 0 1 15.8223,-0.5332 223.68083,212.36714 0 0 1 22.3301,1.0625 223.68083,212.36714 0 0 1 22.1074,3.1719 223.68083,212.36714 0 0 1 21.664,5.2519 223.68083,212.36714 0 0 1 21.004,7.2793 223.68083,212.36714 0 0 1 20.1328,9.2324 223.68083,212.36714 0 0 1 19.0605,11.0958 223.68083,212.36714 0 0 1 17.8008,12.8476 223.68083,212.36714 0 0 1 16.3594,14.4688 223.68083,212.36714 0 0 1 14.7558,15.9472 223.68083,212.36714 0 0 1 4.0489,5.375 186.67617,130.10765 0 0 1 4.6328,-3.4668 186.67617,130.10765 0 0 1 14.0195,-8.584 186.67617,130.10765 0 0 1 15.1777,-7.5644 186.67617,130.10765 0 0 1 16.1856,-6.4727 186.67617,130.10765 0 0 1 17.0332,-5.3125 186.67617,130.10765 0 0 1 17.707,-4.0996 186.67617,130.10765 0 0 1 18.207,-2.8496 186.67617,130.10765 0 0 1 18.5235,-1.5664 186.67617,130.10765 0 0 1 7.5488,-0.1855 v -367.836 z"
       style="opacity:1;fill:none;fill-opacity:1;stroke:#000000;stroke-width:3.85889769;stroke-miterlimit:4;stroke-dasharray:none;stroke-opacity:1" />
    <ellipse
       ry="26.472946"
       rx="27.969656"
       cy="-469.37711"
       cx="-689.54486"
       id="path1431"
       style="opacity:1;fill:#000000;fill-opacity:1;stroke:#000000;stroke-width:1.95664358;stroke-miterlimit:4;stroke-dasharray:none;stroke-opacity:1" />
  </g>
</svg>
