<?xml version="1.0" encoding="UTF-8" standalone="no"?>
<!-- Created with Inkscape (http://www.inkscape.org/) -->

<svg
   xmlns:dc="http://purl.org/dc/elements/1.1/"
   xmlns:cc="http://creativecommons.org/ns#"
   xmlns:rdf="http://www.w3.org/1999/02/22-rdf-syntax-ns#"
   xmlns:svg="http://www.w3.org/2000/svg"
   xmlns="http://www.w3.org/2000/svg"
   xmlns:xlink="http://www.w3.org/1999/xlink"
   xmlns:sodipodi="http://sodipodi.sourceforge.net/DTD/sodipodi-0.dtd"
   xmlns:inkscape="http://www.inkscape.org/namespaces/inkscape"
   width="153.08028mm"
   height="65.674515mm"
   viewBox="0 0 153.08028 65.674511"
   version="1.1"
   id="svg8"
   inkscape:version="0.92.2 2405546, 2018-03-11"
   sodipodi:docname="mask_button.svg">
  <defs
     id="defs2">
    <linearGradient
       id="linearGradient1247"
       inkscape:collect="always">
      <stop
         id="stop1277"
         offset="0"
         style="stop-color:#535353;stop-opacity:1;" />
      <stop
         id="stop1279"
         offset="1"
         style="stop-color:#232323;stop-opacity:0.96862745" />
    </linearGradient>
    <linearGradient
       inkscape:collect="always"
       xlink:href="#linearGradient1247"
       id="linearGradient1249"
       x1="-842.30542"
       y1="917.7984"
       x2="-796.13562"
       y2="937.2453"
       gradientUnits="userSpaceOnUse"
       gradientTransform="translate(-1.4967093,-2.2450639)" />
    <filter
       style="color-interpolation-filters:sRGB"
       inkscape:label="Blur"
       id="filter1299">
      <feGaussianBlur
         stdDeviation="0.4 0.4"
         result="blur"
         id="feGaussianBlur1297" />
    </filter>
  </defs>
  <sodipodi:namedview
     id="base"
     pagecolor="#ffffff"
     bordercolor="#666666"
     borderopacity="1.0"
     inkscape:pageopacity="0.0"
     inkscape:pageshadow="2"
     inkscape:zoom="0.062500002"
     inkscape:cx="-7.9979735"
     inkscape:cy="2394.443"
     inkscape:document-units="mm"
     inkscape:current-layer="layer1"
     showgrid="false"
     showborder="true"
     inkscape:window-width="1920"
     inkscape:window-height="1003"
     inkscape:window-x="0"
     inkscape:window-y="0"
     inkscape:window-maximized="1"
     fit-margin-top="0"
     fit-margin-left="0"
     fit-margin-right="0"
     fit-margin-bottom="0"
     inkscape:object-nodes="false"
     inkscape:snap-nodes="false"
     inkscape:snap-others="false"
     inkscape:snap-global="false" />
  <metadata
     id="metadata5">
    <rdf:RDF>
      <cc:Work
         rdf:about="">
        <dc:format>image/svg+xml</dc:format>
        <dc:type
           rdf:resource="http://purl.org/dc/dcmitype/StillImage" />
        <dc:title />
      </cc:Work>
    </rdf:RDF>
  </metadata>
  <g
     inkscape:label="Layer 1"
     inkscape:groupmode="layer"
     id="layer1"
     transform="translate(870.26279,-908.34859)">
    <text
       xml:space="preserve"
       style="font-style:normal;font-weight:normal;font-size:10.58333302px;line-height:1.25;font-family:sans-serif;letter-spacing:0px;word-spacing:0px;fill:#000000;fill-opacity:1;stroke:none;stroke-width:0.26458332"
       x="-917.5553"
       y="-254.83687"
       id="text1454"><tspan
         sodipodi:role="line"
         id="tspan1452"
         x="-917.5553"
         y="-245.20735"
         style="stroke-width:0.26458332" /></text>
    <g
       id="g1303">
      <path
         style="opacity:0.56800011;fill:#070707;fill-opacity:1;stroke:none;stroke-width:0.26458332px;stroke-linecap:butt;stroke-linejoin:miter;stroke-opacity:1;filter:url(#filter1299)"
         d="m -830.37855,913.82147 c -2.80633,0 -7.81199,0.33298 -11.41223,1.68363 -5.8307,2.18741 -13.28317,5.79969 -15.71532,10.10274 l 9.35447,28.62461 c 0,0 3.92848,9.72883 8.41861,12.34808 4.49013,2.61924 9.91567,1.87068 9.91567,1.87068 0,0 17.58648,0.56134 27.68927,-10.2898 2.90749,-3.12285 5.78316,-4.30485 8.40569,-4.41008 2.62238,0.10539 5.49787,1.28741 8.40517,4.41008 10.10279,10.85114 27.68926,10.2898 27.68926,10.2898 0,0 5.42555,0.74856 9.91568,-1.87068 4.49013,-2.61925 8.4186,-12.34808 8.4186,-12.34808 l 9.35447,-28.62461 c -2.43215,-4.30305 -9.88462,-7.91533 -15.71532,-10.10274 -3.60024,-1.35065 -8.60589,-1.68363 -11.41222,-1.68363 -2.80633,0 -12.90929,3.36725 -12.90929,3.36725 0,0 -15.80243,4.45849 -18.52187,5.61308 -1.05901,0.44966 -3.12687,0.5433 -5.13353,0.50697 v -0.003 c -0.0302,6.6e-4 -0.0607,4.2e-4 -0.091,10e-4 -0.0304,-6.1e-4 -0.0611,-3.7e-4 -0.0915,-10e-4 v 0.003 c -2.00666,0.0363 -4.07452,-0.0573 -5.13354,-0.50697 -2.71944,-1.15461 -18.52186,-5.61308 -18.52186,-5.61308 0,0 -10.10296,-3.36725 -12.90929,-3.36725 z m -7.39749,16.64293 c 0.0986,-7.7e-4 0.19481,0.002 0.28836,0.008 0,0 28.99839,2.80641 32.36598,13.65756 0,0 0.56169,7.85764 -13.65705,10.47689 -5.64265,1.03944 -13.2058,-0.90424 -16.44912,-2.56834 -2.52361,-1.29482 -5.43117,-5.13265 -8.49819,-12.5403 -2.41243,-5.82668 2.89452,-9.01038 5.95002,-9.03356 z m 88.10677,0 c 3.05551,0.0232 8.36246,3.20688 5.95002,9.03356 -3.06702,7.40765 -5.97458,11.24548 -8.49818,12.5403 -3.24333,1.6641 -10.80648,3.60778 -16.44913,2.56834 -14.21874,-2.61925 -13.65705,-10.47689 -13.65705,-10.47689 3.36759,-10.85115 32.36599,-13.65756 32.36599,-13.65756 0.0935,-0.006 0.18975,-0.009 0.28835,-0.008 z"
         id="path1289"
         inkscape:connector-curvature="0" />
      <path
         inkscape:connector-curvature="0"
         id="path1195"
         d="m -830.93982,913.25996 c -2.80633,0 -7.81199,0.33298 -11.41223,1.68363 -5.8307,2.18741 -13.28317,5.79969 -15.71532,10.10274 l 9.35447,28.62461 c 0,0 3.92848,9.72883 8.41861,12.34808 4.49013,2.61924 9.91567,1.87068 9.91567,1.87068 0,0 17.58648,0.56134 27.68927,-10.2898 2.90749,-3.12285 5.78316,-4.30485 8.40569,-4.41008 2.62238,0.10539 5.49787,1.28741 8.40517,4.41008 10.10279,10.85114 27.68926,10.2898 27.68926,10.2898 0,0 5.42555,0.74856 9.91568,-1.87068 4.49013,-2.61925 8.4186,-12.34808 8.4186,-12.34808 l 9.35447,-28.62461 c -2.43215,-4.30305 -9.88462,-7.91533 -15.71532,-10.10274 -3.60024,-1.35065 -8.60589,-1.68363 -11.41222,-1.68363 -2.80633,0 -12.90929,3.36725 -12.90929,3.36725 0,0 -15.80243,4.45849 -18.52187,5.61308 -1.05901,0.44966 -3.12687,0.5433 -5.13353,0.50697 v -0.003 c -0.0302,6.6e-4 -0.0607,4.2e-4 -0.091,10e-4 -0.0304,-6.1e-4 -0.0611,-3.7e-4 -0.0915,-10e-4 v 0.003 c -2.00666,0.0363 -4.07452,-0.0573 -5.13354,-0.50697 -2.71944,-1.15461 -18.52186,-5.61308 -18.52186,-5.61308 0,0 -10.10296,-3.36725 -12.90929,-3.36725 z m -7.39749,16.64293 c 0.0986,-7.7e-4 0.19481,0.002 0.28836,0.008 0,0 28.99839,2.80641 32.36598,13.65756 0,0 0.56169,7.85764 -13.65705,10.47689 -5.64265,1.03944 -13.2058,-0.90424 -16.44912,-2.56834 -2.52361,-1.29482 -5.43117,-5.13265 -8.49819,-12.5403 -2.41243,-5.82668 2.89452,-9.01038 5.95002,-9.03356 z m 88.10677,0 c 3.05551,0.0232 8.36246,3.20688 5.95002,9.03356 -3.06702,7.40765 -5.97458,11.24548 -8.49818,12.5403 -3.24333,1.6641 -10.80648,3.60778 -16.44913,2.56834 -14.21874,-2.61925 -13.65705,-10.47689 -13.65705,-10.47689 3.36759,-10.85115 32.36599,-13.65756 32.36599,-13.65756 0.0935,-0.006 0.18975,-0.009 0.28835,-0.008 z"
         style="opacity:1;fill:url(#linearGradient1249);fill-opacity:1;stroke:none;stroke-width:0.26458332px;stroke-linecap:butt;stroke-linejoin:miter;stroke-opacity:1" />
    </g>
  </g>
</svg>
